<?xml version="1.0" standalone="no"?>
<!DOCTYPE svg PUBLIC "-//W3C//DTD SVG 20010904//EN"
        "http://www.w3.org/TR/2001/REC-SVG-20010904/DTD/svg10.dtd">
<svg version="1.0" xmlns="http://www.w3.org/2000/svg"
     width="695.000000pt" height="564.000000pt" viewBox="0 0 695.000000 564.000000"
     preserveAspectRatio="xMidYMid meet">

    <g transform="translate(0.000000,564.000000) scale(0.100000,-0.100000)"
       fill="#E9803A" stroke="none">
        <path d="M3870 2955 l0 -1995 394 0 395 0 4 833 c3 801 4 835 24 902 77 265
256 415 495 416 144 0 238 -38 321 -130 69 -76 110 -191 127 -352 6 -61 10
-414 10 -885 l0 -784 390 0 391 0 -3 958 c-4 951 -4 958 -27 1066 -97 469
-361 704 -817 732 -228 13 -433 -40 -608 -159 -73 -49 -209 -185 -256 -254
-19 -29 -38 -53 -42 -53 -5 0 -8 383 -8 850 l0 850 -395 0 -395 0 0 -1995z"/>
        <path d="M490 2850 l0 -1890 405 0 405 0 1 928 0 927 45 -90 c28 -56 262 -404
623 -925 l579 -835 512 -3 c411 -2 511 0 502 10 -5 7 -334 451 -731 987 -458
618 -718 978 -712 985 35 45 1329 1774 1335 1784 6 9 -91 12 -471 12 l-479 0
-548 -800 c-301 -440 -571 -844 -599 -898 l-52 -97 -3 898 -2 897 -405 0 -405
0 0 -1890z"/>
    </g>
</svg>
