<?xml version="1.0" standalone="no"?><!DOCTYPE svg PUBLIC "-//W3C//DTD SVG 1.1//EN" "http://www.w3.org/Graphics/SVG/1.1/DTD/svg11.dtd"><svg t="1713855892959" class="icon" viewBox="0 0 1152 1024" version="1.1" xmlns="http://www.w3.org/2000/svg" p-id="76423" xmlns:xlink="http://www.w3.org/1999/xlink" width="900" height="800"><path d="M988.672 19.2c79.232 0 144.128 62.72 144.128 140.8v844.8h-308.864v-221.504H755.84V1004.8H447.104v-3.264l-426.048 0.064V448c0-55.552 43.584-100.608 98.56-105.216l9.216-0.384 318.272-0.064V160c0-74.688 59.328-135.296 133.888-140.48L591.232 19.2zM447.104 425.536l-318.272 0.064a24.192 24.192 0 0 0-24.128 17.92L104.32 448v470.4l92.16-0.064V768h132.48v150.336h118.208v-492.8zM988.672 108.8h-397.44c-30.464 0-54.528 23.296-54.528 51.2v755.2h129.6v-221.44h247.232v221.44H1043.2V160c0-25.792-20.48-47.616-47.616-50.816l-6.912-0.384zM328.96 512v128H196.48V512h132.48z m494.08-273.28v96h99.392v62.08H823.04v97.92h-66.24V397.44h-99.328v-64h99.328V238.72h66.24z" fill="#515151" p-id="76424"></path></svg>