<?xml version="1.0" standalone="no"?><!DOCTYPE svg PUBLIC "-//W3C//DTD SVG 1.1//EN" "http://www.w3.org/Graphics/SVG/1.1/DTD/svg11.dtd"><svg t="1713856142082" class="icon" viewBox="0 0 1024 1024" version="1.1" xmlns="http://www.w3.org/2000/svg" p-id="78287" xmlns:xlink="http://www.w3.org/1999/xlink" width="800" height="800"><path d="M296.96 932.352a83.968 83.968 0 0 1-82.944-80.896V464.384h-30.208a51.2 51.2 0 0 1-43.52-19.456 51.2 51.2 0 0 1-11.776-38.912 51.2 51.2 0 0 1 19.456-36.352l352.768-280.576a56.832 56.832 0 0 1 70.656 0l352.768 281.088a51.2 51.2 0 0 1 19.968 45.568 54.272 54.272 0 0 1-57.856 51.2H870.4v386.048a83.968 83.968 0 0 1-86.528 81.92H296.96zM536.064 128a5.632 5.632 0 0 0-3.584 0L180.224 409.6l84.992 3.584v437.248a33.792 33.792 0 0 0 33.792 30.72h483.328a32.256 32.256 0 0 0 34.304-31.744V413.184h71.68l3.584-3.584-352.256-280.576z" fill="#2c2c2c" p-id="78288"></path><path d="M671.744 630.784a13.824 13.824 0 0 1-14.848 13.824h-105.984v97.792a15.36 15.36 0 0 1-17.92 12.288 16.896 16.896 0 0 1-12.288-12.288v-97.792H415.232a13.824 13.824 0 0 1-14.848-12.8 14.336 14.336 0 0 1 12.8-15.36h107.52v-97.28a15.36 15.36 0 0 1 30.208 0V614.4h105.472a14.336 14.336 0 0 1 15.36 13.824z" fill="#2c2c2c" p-id="78289"></path><path d="M317.952 370.688A12.8 12.8 0 0 1 307.2 366.08a13.312 13.312 0 0 1 0-18.432l179.2-145.92a12.8 12.8 0 0 1 16.384 19.456L326.144 367.616a12.8 12.8 0 0 1-8.192 3.072z" fill="#2c2c2c" p-id="78290"></path></svg>