<?xml version="1.0" standalone="no"?><!DOCTYPE svg PUBLIC "-//W3C//DTD SVG 1.1//EN" "http://www.w3.org/Graphics/SVG/1.1/DTD/svg11.dtd"><svg t="1715160902257" class="icon" viewBox="0 0 1024 1024" version="1.1" xmlns="http://www.w3.org/2000/svg" p-id="13856" xmlns:xlink="http://www.w3.org/1999/xlink" width="800" height="800"><path d="M906.24 757.248h-570.368c-71.68 0-145.408 5.12-217.088 0-42.496-3.072-36.864-43.008-36.864-73.728v-159.744-180.736c0-28.672-2.56-58.88 0-87.552 3.584-39.936 39.936-35.84 69.12-35.84h123.392c207.872 0 415.744-3.072 623.616 0 31.744 0.512 44.032 20.992 44.032 50.176v135.68c0 102.912 2.048 206.336 0 309.248-0.512 22.528-11.264 40.96-35.84 42.496-32.768 1.536-32.768 52.736 0 51.2 45.056-2.56 82.944-33.792 86.528-80.384 1.024-10.24 0.512-20.992 0.512-31.232v-160.256-193.536c0-32.768 4.096-68.608-1.024-101.376-8.704-54.272-55.808-73.728-103.936-73.728H384c-87.04 0-174.592-1.536-261.632 0-53.76 1.024-90.624 39.424-91.136 92.672-0.512 43.52 0 87.04 0 130.56 0 108.544-1.536 217.088 0 325.12 1.024 53.248 38.912 90.624 92.16 91.648 31.232 0.512 61.952 0 93.184 0h690.176c32.256 0.512 32.256-50.688-0.512-50.688z" fill="#231815" p-id="13857"></path><path d="M74.24 429.568h865.28c32.768 0 32.768-51.2 0-51.2h-865.28c-32.768 0-32.768 51.2 0 51.2zM176.64 690.688h151.04c32.768 0 32.768-51.2 0-51.2h-151.04c-32.768 0-32.768 51.2 0 51.2z" fill="#231815" p-id="13858"></path></svg>