<?xml version="1.0" standalone="no"?><!DOCTYPE svg PUBLIC "-//W3C//DTD SVG 1.1//EN"
        "http://www.w3.org/Graphics/SVG/1.1/DTD/svg11.dtd">
<svg t="1734079362274" class="icon" viewBox="0 0 1024 1024" version="1.1" xmlns="http://www.w3.org/2000/svg"
     p-id="11164" width="200" height="200">
    <path d="M277.942857 399.36c-24.868571 0-43.885714 20.48-43.885714 43.885714 0 24.868571 20.48 43.885714 43.885714 43.885715 24.868571 0 43.885714-20.48 43.885714-43.885715 1.462857-23.405714-19.017143-43.885714-43.885714-43.885714zM539.794286 444.708571c0-24.868571-20.48-43.885714-43.885715-43.885714s-43.885714 20.48-43.885714 43.885714c0 24.868571 20.48 43.885714 43.885714 43.885715s43.885714-20.48 43.885715-43.885715zM713.874286 488.594286c24.868571 0 43.885714-20.48 43.885714-43.885715 0-24.868571-20.48-43.885714-43.885714-43.885714s-43.885714 20.48-43.885715 43.885714 19.017143 43.885714 43.885715 43.885715z"
          fill="#2c2c2c" p-id="11165"></path>
    <path d="M867.474286 599.771429c24.868571-46.811429 38.034286-98.011429 38.034285-150.674286C905.508571 250.148571 722.651429 87.771429 497.371429 87.771429S87.771429 250.148571 87.771429 449.097143c0 121.417143 67.291429 232.594286 181.394285 299.885714l-21.942857 130.194286c-1.462857 8.777143 1.462857 16.091429 8.777143 21.942857 4.388571 2.925714 8.777143 4.388571 13.165714 4.388571 2.925714 0 7.314286-1.462857 10.24-2.925714l177.005715-93.622857c20.48 1.462857 39.497143 2.925714 59.977142 1.462857 33.645714 70.217143 103.862857 118.491429 185.782858 118.491429 114.102857 0 206.262857-92.16 206.262857-206.262857-1.462857-45.348571-16.091429-87.771429-40.96-122.88zM452.022857 765.074286c-4.388571 0-8.777143 0-13.165714 2.925714l-143.36 76.068571 17.554286-100.937142c1.462857-8.777143-2.925714-19.017143-11.702858-23.405715C196.022857 659.748571 131.657143 560.274286 131.657143 449.097143 131.657143 273.554286 295.497143 131.657143 495.908571 131.657143s364.251429 141.897143 364.251429 317.44c0 40.96-8.777143 78.994286-24.868571 115.565714H833.828571c-2.925714-2.925714-5.851429-4.388571-8.777142-7.314286-1.462857-1.462857-4.388571-2.925714-5.851429-4.388571-2.925714-1.462857-5.851429-4.388571-8.777143-5.851429-2.925714-1.462857-4.388571-2.925714-7.314286-4.388571l-8.777142-4.388571c-2.925714-1.462857-4.388571-2.925714-7.314286-2.925715-2.925714-1.462857-5.851429-2.925714-10.24-4.388571-2.925714-1.462857-5.851429-1.462857-8.777143-2.925714-2.925714-1.462857-5.851429-1.462857-10.24-2.925715-2.925714-1.462857-5.851429-1.462857-8.777143-2.925714-2.925714-1.462857-5.851429-1.462857-8.777143-1.462857-4.388571 0-7.314286-1.462857-11.702857-1.462857-2.925714 0-5.851429-1.462857-7.314286-1.462857-5.851429 0-13.165714-1.462857-19.017142-1.462858-114.102857 0-206.262857 92.16-206.262858 206.262858 0 7.314286 0 14.628571 1.462858 21.942857v1.462857c1.462857 7.314286 1.462857 14.628571 2.925714 20.48-16.091429 0-30.72 0-48.274286-1.462857zM702.171429 885.028571c-70.217143 0-128.731429-43.885714-152.137143-105.325714l-4.388572-13.165714v-1.462857c-1.462857-4.388571-1.462857-8.777143-2.925714-11.702857 0-1.462857 0-2.925714-1.462857-4.388572 0-2.925714-1.462857-5.851429-1.462857-8.777143 0-4.388571-1.462857-10.24-1.462857-14.628571 0-89.234286 73.142857-162.377143 162.377142-162.377143 5.851429 0 11.702857 0 17.554286 1.462857h2.925714c4.388571 0 8.777143 1.462857 13.165715 2.925714 1.462857 0 2.925714 0 2.925714 1.462858 4.388571 1.462857 8.777143 1.462857 13.165714 2.925714 1.462857 0 2.925714 1.462857 2.925715 1.462857 4.388571 1.462857 8.777143 2.925714 11.702857 4.388571 1.462857 0 2.925714 1.462857 4.388571 1.462858 4.388571 1.462857 7.314286 4.388571 11.702857 5.851428 1.462857 1.462857 2.925714 1.462857 4.388572 2.925714 2.925714 1.462857 7.314286 4.388571 10.24 7.314286 1.462857 1.462857 2.925714 1.462857 2.925714 2.925714 2.925714 2.925714 7.314286 5.851429 10.24 8.777143l2.925714 2.925715 10.24 10.24c24.868571 29.257143 40.96 65.828571 40.96 106.788571 0 84.845714-71.68 157.988571-160.914285 157.988571z"
          fill="#2c2c2c" p-id="11166"></path>
    <path d="M806.034286 697.782857h-81.92v-81.92c0-11.702857-10.24-21.942857-21.942857-21.942857s-21.942857 10.24-21.942858 21.942857v103.862857c0 11.702857 10.24 21.942857 21.942858 21.942857h103.862857c11.702857 0 21.942857-10.24 21.942857-21.942857s-10.24-21.942857-21.942857-21.942857z"
          fill="#2c2c2c" p-id="11167"></path>
</svg>