<?xml version="1.0" standalone="no"?><!DOCTYPE svg PUBLIC "-//W3C//DTD SVG 1.1//EN" "http://www.w3.org/Graphics/SVG/1.1/DTD/svg11.dtd"><svg t="1713839342600" class="icon" viewBox="0 0 1024 1024" version="1.1" xmlns="http://www.w3.org/2000/svg" p-id="18485" xmlns:xlink="http://www.w3.org/1999/xlink" width="800" height="800"><path d="M917 178v666c0 58.8-47.8 106.6-106.6 106.6H263c-58.8 0-106.6-47.8-106.6-106.6v-135.4H135c-16.6 0-30-13.4-30-30s13.4-30 30-30H236c16.6 0 30 13.4 30 30s-13.4 30-30 30h-19.6V844c0 25.6 21 46.6 46.6 46.6h547.4c25.6 0 46.6-21 46.6-46.6V178c0-25.6-21-46.6-46.6-46.6H263c-25.6 0-46.6 21-46.6 46.6v134.8h19.6c16.6 0 30 13.4 30 30s-13.4 30-30 30H135c-16.6 0-30-13.4-30-30s13.4-30 30-30h21.4V178c0-58.8 47.8-106.6 106.6-106.6h547.4c58.8 0 106.6 47.8 106.6 106.6zM450 501.2c-30.8-26.6-50.2-65.8-50.2-109.6 0-79.8 65-144.8 144.8-144.8 79.8 0 144.8 65 144.8 144.8 0 43.8-19.4 83-50.2 109.6 74 40.2 125.4 126 125.4 225 0 16.6-13.4 30-30 30s-30-13.4-30-30c0-104.4-71.8-189.2-160-189.2s-160 84.8-160 189.2c0 16.6-13.4 30-30 30s-30-13.4-30-30c0-99.2 51.4-185 125.4-225z m9.8-109.6c0 46.8 38 84.8 84.8 84.8s84.8-38 84.8-84.8-38-84.8-84.8-84.8c-46.8-0.2-84.8 38-84.8 84.8zM135 484.8H236c16.6 0 30-13.4 30-30s-13.4-30-30-30H135c-16.6 0-30 13.4-30 30s13.4 30 30 30z m0 111.8H236c16.6 0 30-13.4 30-30s-13.4-30-30-30H135c-16.6 0-30 13.4-30 30s13.4 30 30 30z" p-id="18486"></path></svg>