<?xml version="1.0" standalone="no"?><!DOCTYPE svg PUBLIC "-//W3C//DTD SVG 1.1//EN" "http://www.w3.org/Graphics/SVG/1.1/DTD/svg11.dtd"><svg t="1713943882311" class="icon" viewBox="0 0 1024 1024" version="1.1" xmlns="http://www.w3.org/2000/svg" p-id="19955" xmlns:xlink="http://www.w3.org/1999/xlink" width="800" height="800"><path d="M895.405 161.292v700.92H127.262v-700.92h768.143m21.703-64h-811.55c-23.36 0-42.296 18.936-42.296 42.296v744.329c0 23.36 18.937 42.296 42.296 42.296h811.55c23.36 0 42.297-18.937 42.297-42.296v-744.33c0-23.359-18.937-42.295-42.297-42.295z" fill="" p-id="19956"></path><path d="M446.784 417.538l168.799 97.456-168.8 97.456V417.538m-21.64-79.952c-22.094 0-42.36 17.668-42.36 42.36v270.097c0 24.69 20.268 42.359 42.36 42.359 7.043 0 14.27-1.795 21.085-5.73l233.91-135.048c28.198-16.28 28.198-56.98 0-73.26l-233.91-135.048c-6.814-3.934-14.044-5.73-21.084-5.73z" fill="" p-id="19957"></path></svg>