<?xml version="1.0" standalone="no"?><!DOCTYPE svg PUBLIC "-//W3C//DTD SVG 1.1//EN" "http://www.w3.org/Graphics/SVG/1.1/DTD/svg11.dtd"><svg t="1714368672517" class="icon" viewBox="0 0 1024 1024" version="1.1" xmlns="http://www.w3.org/2000/svg" p-id="13348" xmlns:xlink="http://www.w3.org/1999/xlink" width="800" height="800"><path d="M452.71 108H165.43c-37.3 0-67.62 31.3-67.62 69.77v666.49c0 38.46 30.32 69.74 67.62 69.74h694.75c37.3 0 67.63-31.28 67.63-69.75V359.56c0-34.75-38.12-74.72-73-82.12 0.22-2.37 0.35-4.8 0.35-7.29v-49.33c0-38.31-31.39-83.34-70-83.34H513.9l-19.33-0.7L488 130s-14-22-35.32-22zM214 834c-20 0-36.23-15.86-36.23-35.42V223.42C177.81 203.86 194 188 214 188h194.88c18.15 0 32 18.83 32 18.83l109.4 121.36C561 341 572.63 351 588.83 351h216c23.71 0 42.94 18.79 42.94 42v405.58c0 19.56-16.23 35.42-36.24 35.42z m407.19-556.38l-54.8-60.21h181.84c12.12 0 25.2 13.84 25.2 28.8v25.14a35.25 35.25 0 0 0 0.6 6.27z" p-id="13349"></path><path d="M544 442h-64v107H373v64h107v107h64V613h107v-64H544V442z" p-id="13350"></path></svg>