<?xml version="1.0" standalone="no"?><!DOCTYPE svg PUBLIC "-//W3C//DTD SVG 1.1//EN"
        "http://www.w3.org/Graphics/SVG/1.1/DTD/svg11.dtd">
<svg t="1733478605512" class="icon" viewBox="0 0 1024 1024" version="1.1" xmlns="http://www.w3.org/2000/svg"
     p-id="14633" width="200" height="200">
    <path d="M238.2 754.24h638.9c16.57 0 30-13.43 30-30V117.65c0-16.57-13.43-30-30-30H238.2c-32.29 0-62.65 12.57-85.49 35.41-22.83 22.84-35.4 53.2-35.4 85.48v606.59c0 66.66 54.23 120.89 120.89 120.89h638.9c16.57 0 30-13.43 30-30s-13.43-30-30-30H238.2c-1.05 0-2.09-0.03-3.13-0.08-32.13-1.63-57.76-28.29-57.76-60.81 0-16.26 6.34-31.55 17.83-43.06 11.5-11.5 26.8-17.83 43.06-17.83z m-60.89-545.7c0-16.26 6.34-31.55 17.83-43.06 11.5-11.5 26.79-17.83 43.06-17.83h608.9v546.59H238.2c-21.74 0-42.61 5.71-60.89 16.41V208.54z"
          fill="#323333" p-id="14634"></path>
    <path d="M401.66 545.62c16.57 0 30-13.43 30-30V398.84l160.52 160.52a29.991 29.991 0 0 0 21.22 8.79c3.86 0 7.76-0.75 11.47-2.28a29.996 29.996 0 0 0 18.52-27.72V333.17c0-16.57-13.43-30-30-30s-30 13.43-30 30v132.55L422.87 305.2a29.981 29.981 0 0 0-32.69-6.5 29.996 29.996 0 0 0-18.52 27.72v189.21c0 16.56 13.43 29.99 30 29.99z"
          fill="#323333" p-id="14635"></path>
</svg>