<?xml version="1.0" standalone="no"?><!DOCTYPE svg PUBLIC "-//W3C//DTD SVG 1.1//EN"
        "http://www.w3.org/Graphics/SVG/1.1/DTD/svg11.dtd">
<svg t="1723540261479" class="icon" viewBox="0 0 1024 1024" version="1.1" xmlns="http://www.w3.org/2000/svg" p-id="9450"
     width="200" height="200">
    <path d="M526.272 99.392l5.184 3.2 416.896 320a32 32 0 0 1-34.112 53.888l-4.864-3.072-41.6-32v115.584a32 32 0 0 1-63.488 5.76l-0.512-5.76v-159.36l0.384-4.992L512 168.32 224.448 390.144l0.384 1.792 0.512 5.76v469.632h608a32 32 0 0 1 31.488 26.24l0.512 5.76a32 32 0 0 1-26.24 31.488l-5.76 0.512h-640a32 32 0 0 1-31.488-26.24l-0.512-5.76V438.72l-44.8 34.624a32 32 0 0 1-40.96-1.536l-3.968-4.288a32 32 0 0 1 1.6-40.96l4.224-3.904 415.04-320a32 32 0 0 1 33.792-3.264zM499.712 620.8v51.52h364.224a32 32 0 0 1 5.76 63.552l-5.76 0.512-364.288-0.064 0.064 50.88-128-84.096 128-82.304zM624.704 448a32 32 0 0 1 5.76 63.488L624.64 512h-224a32 32 0 0 1-5.76-63.488L400.704 448h224z"
          fill="#2c2c2c" p-id="9451"></path>
</svg>