<?xml version="1.0" standalone="no"?><!DOCTYPE svg PUBLIC "-//W3C//DTD SVG 1.1//EN"
        "http://www.w3.org/Graphics/SVG/1.1/DTD/svg11.dtd">
<svg t="1724899595966" class="icon" viewBox="0 0 1024 1024" version="1.1" xmlns="http://www.w3.org/2000/svg"
     p-id="14203" width="200" height="200">
    <path d="M850.7 755.3h-188c-53.7 0-97.4 43.7-97.4 97.4s43.7 97.4 97.4 97.4h188c53.7 0 97.4-43.7 97.4-97.4s-43.7-97.4-97.4-97.4zM729.5 895.7h-66.8c-23.7 0-43-19.3-43-43s19.3-43 43-43h66.8v86z m121.2 0h-66.8v-86h66.8c23.7 0 43 19.3 43 43s-19.3 43-43 43zM690.2 742.6l171.1-77.9c48.9-22.2 70.6-80.1 48.3-129-22.2-48.9-80.1-70.6-129-48.3l-171.1 77.9c-48.9 22.2-70.6 80.1-48.3 129 22.2 48.8 80.1 70.5 129 48.3z m113-205.7c21.6-9.8 47.1-0.2 57 21.3 9.8 21.6 0.2 47.1-21.3 57L778 642.9l-35.6-78.3 60.8-27.7z m-171.1 77.8l60.8-27.7 35.6 78.3-60.8 27.7c-21.6 9.8-47.1 0.2-57-21.3-9.8-21.6-0.2-47.1 21.4-57z"
          p-id="14204"></path>
    <path d="M235.3 366.8l279.1-213.7 347.9 269.7 38.9 30.1c3.5 2.7 8.5 2.1 11.2-1.4l34.3-44.3c2.7-3.5 2.1-8.5-1.4-11.2L534.2 77.4c-11.5-8.9-27.5-9-39.1-0.1L78.8 396c-3.5 2.7-4.2 7.7-1.5 11.2l34 44.5c2.7 3.5 7.7 4.2 11.2 1.5l43.8-33.5 0.3-0.2v525.9c0 4.4 3.6 8 8 8h52.7c4.4 0 8-3.6 8-8V366.8z"
          p-id="14205"></path>
    <path d="M541.8 750H380.3l-0.2-58.1c0-6.6-7.6-10.4-12.9-6.3l-108.1 90.5c-4.2 3.2-4.2 9.5 0 12.7l108.6 89.6c5.3 4 12.8 0.2 12.8-6.4l-0.2-58h161.4c4.4 0 8-3.6 8-8v-48c0.1-4.4-3.5-8-7.9-8z"
          p-id="14206"></path>
</svg>