<?xml version="1.0" standalone="no"?><!DOCTYPE svg PUBLIC "-//W3C//DTD SVG 1.1//EN"
        "http://www.w3.org/Graphics/SVG/1.1/DTD/svg11.dtd">
<svg t="1724923134111" class="icon" viewBox="0 0 1024 1024" version="1.1" xmlns="http://www.w3.org/2000/svg"
     p-id="11440" width="200" height="200">
    <path d="M295.936 356.096a28.8256 28.8256 0 0 0 28.8256 28.8256h382.8736a28.8256 28.8256 0 0 0 0-57.6H324.7104a28.7744 28.7744 0 0 0-28.7744 28.7744zM706.9184 419.84H324.0448a28.8256 28.8256 0 0 0 0 57.6h382.8736a28.8256 28.8256 0 1 0 2.4064-57.6 18.8416 18.8416 0 0 0-2.4064 0z m-204.8 92.16H324.0448a28.8256 28.8256 0 1 0-2.4576 57.6h180.5312a28.8256 28.8256 0 1 0 2.4064-57.6z m-71.68 98.304H324.0448a28.8256 28.8256 0 1 0-2.4576 57.6h108.8512a28.8256 28.8256 0 0 0 2.4064-57.6 18.8416 18.8416 0 0 0-2.4064 0.1024z m-25.6 94.3104H324.0448a28.8256 28.8256 0 1 0-2.4576 57.6h83.2512a28.8256 28.8256 0 0 0 2.4064-57.6z m15.36 90.4704H324.0448a28.8256 28.8256 0 1 0-2.4576 57.6h98.6112a28.8256 28.8256 0 1 0 2.4064-57.6z"
          p-id="11441"></path>
    <path d="M966.5024 368.64a26.0608 26.0608 0 0 0-11.776-15.36L552.96 72.192a62.6688 62.6688 0 0 0-67.3792 0L78.2848 341.8624 76.8 343.04a27.5456 27.5456 0 0 0-7.0656 38.1952l0.7168 1.0752A27.5968 27.5968 0 0 0 108.8 389.12l49.3056-32.8704v522.24a83.3536 83.3536 0 0 0 82.9952 82.9952h224a27.904 27.904 0 0 0 27.904-27.904 27.904 27.904 0 0 0-27.904-27.9552H241.1008a27.2896 27.2896 0 0 1-27.136-27.0848V319.1296L516.4544 117.76l0.8704-0.6656a1.536 1.536 0 0 1 2.048 0l299.4688 209.2544v210.7904a27.904 27.904 0 0 0 27.904 27.904 27.9552 27.9552 0 0 0 27.9552-27.904V365.2608l47.3088 33.0752 0.5632 0.3584a35.84 35.84 0 0 0 15.0528 5.12h1.6896a31.9488 31.9488 0 0 0 24.6272-15.36 26.0608 26.0608 0 0 0 2.56-19.8144z"
          p-id="11442"></path>
    <path d="M802.8672 864.8192l-35.2256 32.6144a193.8432 193.8432 0 0 1-105.6256 32.6656 189.9008 189.9008 0 0 1-188.6208-188.5696c0-103.0656 83.0464-188.6208 186.112-188.6208a189.1328 189.1328 0 0 1 143.36 311.9104z m-140.8512 27.648a150.9376 150.9376 0 1 0-150.9888-150.9376 151.3472 151.3472 0 0 0 150.9888 150.9376z"
          p-id="11443"></path>
    <path d="M579.6864 734.7712l185.8048-0.4096h1.536l6.1952-1.6384 5.5808-4.0448 3.7888-5.9392s0-0.4608 0.3072-0.8704l0.512-1.792v-7.0656l-1.792-5.12-56.32-57.6a18.3808 18.3808 0 0 0-12.9536-5.12 18.0736 18.0736 0 0 0-12.9536 5.0688 18.3808 18.3808 0 0 0 0 26.0096l21.5552 21.4016-141.3632 0.3072a18.432 18.432 0 0 0 0 36.8128z m189.0816-5.9392z m1.2288-0.3584z m2.4064-1.1264z m1.0752-0.768z m1.4336-1.28z m0.4608-0.4608z m2.1504-3.2256z m-1.536-13.824zM765.5424 759.3472l-185.856 0.4096-6.8096 1.3312-6.2976 4.1984-0.6144 0.6656-1.4848 1.8944-2.7136 6.2464v0.8192l-0.256 3.9424v1.0752l0.3584 1.8432 0.9728 3.1744v0.4096l0.3072 0.7168 56.6784 57.7536a18.3808 18.3808 0 1 0 25.9072-26.112l-21.504-21.3504 141.3632-0.3072a18.432 18.432 0 0 0 0-36.8128z m-187.8528 5.6832z m-2.5088 0.6144z m-1.2288 0.512z m-2.4064 1.4848z m-1.28 1.1776z m-1.6384 1.9968z m-0.768 1.28z m1.28 14.1824z m1.1264 1.28z"
          p-id="11444"></path>
</svg>