<?xml version="1.0" standalone="no"?><!DOCTYPE svg PUBLIC "-//W3C//DTD SVG 1.1//EN"
        "http://www.w3.org/Graphics/SVG/1.1/DTD/svg11.dtd">
<svg t="1723450709814" class="icon" viewBox="0 0 1024 1024" version="1.1" xmlns="http://www.w3.org/2000/svg"
     p-id="29436" width="200" height="200">
    <path d="M953.6 985.6H70.4c-25.6 0-38.4-19.2-38.4-38.4V83.2c0-25.6 19.2-38.4 38.4-38.4h332.8c12.8 0 25.6 6.4 32 12.8l70.4 89.6H960c25.6 0 38.4 19.2 38.4 38.4v755.2c0 25.6-19.2 44.8-44.8 44.8z m-883.2-44.8H960V185.6H486.4c-12.8 0-25.6-6.4-32-12.8L384 83.2H70.4v857.6z"
          fill="" p-id="29437"></path>
    <path d="M448 332.8c25.6 6.4 51.2 19.2 70.4 38.4 57.6 57.6 115.2 108.8 172.8 166.4 44.8 44.8 57.6 96 38.4 153.6-19.2 64-70.4 96-140.8 89.6-19.2 0-44.8-6.4-57.6-25.6-70.4-64-140.8-128-211.2-198.4-19.2-19.2-32-44.8-32-70.4C281.6 384 358.4 320 448 332.8z m-12.8 38.4c-25.6-6.4-76.8 19.2-96 57.6-12.8 32-6.4 76.8 19.2 102.4 32 32 64 57.6 96 89.6C492.8 576 531.2 531.2 576 486.4c-32-25.6-64-57.6-96-83.2 0-6.4-19.2-19.2-44.8-32z m236.8 332.8c12.8 0 19.2-6.4 25.6-19.2 6.4-25.6 6.4-57.6-12.8-76.8-19.2-32-44.8-57.6-70.4-83.2-6.4-6.4-19.2-6.4-25.6 0-12.8 12.8-12.8 25.6-6.4 38.4 19.2 12.8 32 32 51.2 44.8 19.2 19.2 25.6 38.4 19.2 64-6.4 12.8 6.4 25.6 19.2 32z"
          fill="" p-id="29438"></path>
</svg>