<?xml version="1.0" standalone="no"?><!DOCTYPE svg PUBLIC "-//W3C//DTD SVG 1.1//EN"
        "http://www.w3.org/Graphics/SVG/1.1/DTD/svg11.dtd">
<svg t="1736239967247" class="icon" viewBox="0 0 1024 1024" version="1.1" xmlns="http://www.w3.org/2000/svg" p-id="9440"
     width="200" height="200">
    <path d="M482 549.2a256.2 256.2 0 1 1 255.6-256.2A256.8 256.8 0 0 1 482 549.2z m0-453a196.8 196.8 0 1 0 196.8 196.8A196.8 196.8 0 0 0 482 96.2z"
          fill="#2c2c2c" p-id="9441"></path>
    <path d="M596.6 980.6h-540v-66a424.8 424.8 0 0 1 426-424.8 30 30 0 0 1 0 60 365.4 365.4 0 0 0-365.4 365.4v6.6h480a30 30 0 0 1 0 60zM896 667.4H611a29.4 29.4 0 0 1 0-60h285a29.4 29.4 0 0 1 0 60zM896 768.2H611a29.4 29.4 0 0 1-29.4-29.4 28.8 28.8 0 0 1 29.4-29.4h285a28.8 28.8 0 0 1 29.4 29.4 29.4 29.4 0 0 1-29.4 29.4z"
          fill="#2c2c2c" p-id="9442"></path>
    <path d="M896 861.8H611a29.4 29.4 0 0 1 0-60h285a29.4 29.4 0 0 1 0 60z" fill="#2c2c2c" p-id="9443"></path>
</svg>