<?xml version="1.0" standalone="no"?><!DOCTYPE svg PUBLIC "-//W3C//DTD SVG 1.1//EN"
        "http://www.w3.org/Graphics/SVG/1.1/DTD/svg11.dtd">
<svg t="1723450464426" class="icon" viewBox="0 0 1024 1024" version="1.1" xmlns="http://www.w3.org/2000/svg"
     p-id="22164" width="200" height="200">
    <path d="M960 724.8v-43.2c0-44.8-16-70.4-30.4-84.8-17.6-17.6-41.6-27.2-65.6-27.2h-8L942.4 224c3.2-14.4 0-30.4-8-41.6s-22.4-19.2-36.8-19.2H398.4c-14.4 0-27.2 6.4-35.2 17.6-9.6 11.2-12.8 25.6-11.2 38.4l49.6 348.8h-38.4c-22.4 0-41.6-17.6-44.8-40l-44.8-320c-4.8-30.4-27.2-56-56-62.4L112 121.6c-9.6-1.6-20.8 0-28.8 4.8-9.6 4.8-16 14.4-17.6 24-6.4 27.2 9.6 52.8 35.2 59.2l40 9.6c28.8 6.4 51.2 32 56 62.4l46.4 336C246.4 640 265.6 656 288 656h577.6s3.2 1.6 4.8 1.6c1.6 1.6 4.8 9.6 4.8 20.8V729.6c0 4.8-1.6 12.8-3.2 14.4 0 0-3.2 1.6-11.2 1.6h-14.4c-17.6-41.6-57.6-68.8-100.8-68.8-43.2 0-83.2 27.2-100.8 68.8h-176c-17.6-41.6-57.6-68.8-100.8-68.8-44.8 0-83.2 28.8-100.8 68.8H256v88h11.2c17.6 41.6 57.6 68.8 100.8 68.8 43.2 0 83.2-27.2 100.8-68.8h176c17.6 41.6 57.6 68.8 100.8 68.8 44.8 0 83.2-28.8 100.8-68.8h14.4c38.4 0 62.4-17.6 75.2-32 24-27.2 25.6-64 24-76.8zM720 400h-48v48c0 17.6-14.4 32-32 32s-32-14.4-32-32v-48h-48c-17.6 0-32-14.4-32-32s14.4-32 32-32h48v-48c0-17.6 14.4-32 32-32s32 14.4 32 32v48h48c17.6 0 32 14.4 32 32s-14.4 32-32 32zM257.6 792c0-3.2 0-4.8 1.6-8 0 1.6-1.6 4.8-1.6 8z m139.2 43.2c-17.6 11.2-40 11.2-56 0-19.2-12.8-27.2-36.8-20.8-59.2 6.4-22.4 27.2-38.4 49.6-38.4 22.4 0 43.2 16 49.6 38.4 4.8 22.4-3.2 46.4-22.4 59.2z m376 0c-17.6 11.2-40 11.2-56 0-19.2-12.8-27.2-36.8-20.8-59.2 6.4-22.4 27.2-38.4 49.6-38.4 22.4 0 43.2 16 49.6 38.4 6.4 22.4-3.2 46.4-22.4 59.2z"
          p-id="22165"></path>
</svg>