<?xml version="1.0" standalone="no"?><!DOCTYPE svg PUBLIC "-//W3C//DTD SVG 1.1//EN" "http://www.w3.org/Graphics/SVG/1.1/DTD/svg11.dtd"><svg t="1714368445501" class="icon" viewBox="0 0 1024 1024" version="1.1" xmlns="http://www.w3.org/2000/svg" p-id="9493" xmlns:xlink="http://www.w3.org/1999/xlink" width="800" height="800"><path d="M768 64H256A96.2 96.2 0 0 0 160 160v704a96.2 96.2 0 0 0 96 96h512a96.2 96.2 0 0 0 96-96V160a96.2 96.2 0 0 0-96-96z m32 800a32.1 32.1 0 0 1-32 32H256a32.1 32.1 0 0 1-32-32V160a32.1 32.1 0 0 1 32-32h512A32.1 32.1 0 0 1 800 160z" fill="#333333" p-id="9494"></path><path d="M542.8 678.5c0-54.2-40-70-87.6-70h-58.1a24.1 24.1 0 0 0-24.1 24.1v173A27 27 0 0 0 400 832a27 27 0 0 0 27-26.9v-52h25.9l33.9 64.9a26 26 0 1 0 45.7-24.8l-28.1-50a66.4 66.4 0 0 0 38.4-64.7z m-91.8 32.2h-24.1v-60h24.1c25.6 0 39.1 6.9 39.1 28s-13.5 32-39.1 32zM689.4 719.1l39.2-75.3a24.5 24.5 0 1 0-44.5-20l-10 24.7C670 658.6 664.7 670 660 684.8h-1.2c-6.3-14.5-11.4-26.2-16.2-36.8l-11.6-24.8a25.9 25.9 0 1 0-46.4 22.9l37.7 70.6L580 795.5a24.8 24.8 0 1 0 44.5 21.7l12.7-28.9c5.2-11.7 10-23.4 15.4-37.3h1.2c6 13.9 11.1 25.6 16.6 37.3l13.7 29A25.8 25.8 0 1 0 730 793.8zM704 224H320a32 32 0 0 0 0 64h384a32 32 0 0 0 0-64zM320 416h160a32 32 0 1 0 0-64H320a32 32 0 1 0 0 64zM416 512a32 32 0 0 0-32-32H320a32 32 0 0 0 0 64h64a32 32 0 0 0 32-32z" fill="#333333" p-id="9495"></path></svg>