<?xml version="1.0" standalone="no"?><!DOCTYPE svg PUBLIC "-//W3C//DTD SVG 1.1//EN" "http://www.w3.org/Graphics/SVG/1.1/DTD/svg11.dtd"><svg t="1713843568978" class="icon" viewBox="0 0 1024 1024" version="1.1" xmlns="http://www.w3.org/2000/svg" p-id="72196" xmlns:xlink="http://www.w3.org/1999/xlink" width="800" height="800"><path d="M185.283914 953.412338c-66.204841 0-120.073726-54.82363-120.073726-122.200156 0-67.387783 53.868885-122.222669 120.073726-122.222669 66.216097 0 120.084982 54.834886 120.084982 122.222669C305.368896 898.587686 251.500011 953.412338 185.283914 953.412338zM185.283914 777.12738c-29.265534 0-53.072753 24.26259-53.072753 54.084803s23.808242 54.073546 53.072753 54.073546c29.27679 0 53.096289-24.251334 53.096289-54.073546S214.560704 777.12738 185.283914 777.12738zM420.781462 892.904243c-18.475793 0-33.506115-15.281031-33.506115-34.062793s15.030321-34.062793 33.506115-34.062793l500.419244 0c18.464537 0 33.494858 15.281031 33.494858 34.062793s-15.030321 34.062793-33.494858 34.062793L420.781462 892.904243zM185.283914 636.099413c-66.204841 0-120.073726-54.82363-120.073726-122.211413 0-67.375503 53.868885-122.200156 120.073726-122.200156 66.216097 0 120.084982 54.82363 120.084982 122.200156C305.368896 581.27476 251.500011 636.099413 185.283914 636.099413zM185.283914 459.814454c-29.265534 0-53.072753 24.251334-53.072753 54.073546s23.808242 54.084803 53.072753 54.084803c29.27679 0 53.096289-24.26259 53.096289-54.084803S214.560704 459.814454 185.283914 459.814454zM420.781462 575.580061c-18.475793 0-33.506115-15.281031-33.506115-34.062793 0-18.771529 15.030321-34.051537 33.506115-34.051537l500.419244 0c18.464537 0 33.494858 15.281031 33.494858 34.051537 0 18.782785-15.030321 34.062793-33.494858 34.062793L420.781462 575.580061zM185.283914 318.786487c-66.204841 0-120.073726-54.834886-120.073726-122.222669 0-67.375503 53.868885-122.200156 120.073726-122.200156 66.216097 0 120.084982 54.82363 120.084982 122.200156C305.368896 263.950578 251.500011 318.786487 185.283914 318.786487zM185.283914 142.490272c-29.265534 0-53.072753 24.251334-53.072753 54.073546 0 29.833469 23.808242 54.096059 53.072753 54.096059 29.27679 0 53.096289-24.26259 53.096289-54.096059C238.380202 166.741605 214.560704 142.490272 185.283914 142.490272zM420.781462 258.255879c-18.475793 0-33.506115-15.281031-33.506115-34.062793s15.030321-34.062793 33.506115-34.062793l500.419244 0c18.464537 0 33.494858 15.281031 33.494858 34.062793s-15.030321 34.062793-33.494858 34.062793L420.781462 258.255879z" p-id="72197"></path></svg>