<?xml version="1.0" standalone="no"?><!DOCTYPE svg PUBLIC "-//W3C//DTD SVG 1.1//EN" "http://www.w3.org/Graphics/SVG/1.1/DTD/svg11.dtd"><svg t="1713843486657" class="icon" viewBox="0 0 1024 1024" version="1.1" xmlns="http://www.w3.org/2000/svg" p-id="66942" xmlns:xlink="http://www.w3.org/1999/xlink" width="800" height="800"><path d="M370.7 228.95c17.1 0 31.5 13.95 31.5 31.5v177.3c0 17.1-13.95 31.5-31.5 31.5H193.85c-17.1 0-31.5-13.95-31.5-31.5v-177.3c0-17.1 13.95-31.5 31.5-31.5H370.7m0-60.75H193.85c-50.85 0-92.25 41.4-92.25 92.25v177.3c0 50.85 41.4 92.25 92.25 92.25h177.3c50.85 0 92.25-41.4 92.25-92.25v-177.3c-0.45-50.85-41.85-92.25-92.7-92.25z m334.35-7.2c8.55 0 16.2 3.15 22.05 9l125.1 125.1c5.85 5.85 9 13.95 9 22.05s-3.15 16.2-9 22.05L727.1 464.3c-5.85 5.85-13.95 9-22.05 9-8.55 0-16.2-3.15-22.05-9L557.9 339.2c-5.85-5.85-9-13.95-9-22.05s3.15-16.2 9-22.05L683 170c5.85-5.85 13.95-9 22.05-9m0-60.75c-23.4 0-47.25 9-65.25 27l-125.1 125.1c-36 36-36 94.05 0 130.05l125.55 125.1c18 18 41.4 27 65.25 27 23.4 0 47.25-9 65.25-27l125.1-125.1c36-36 36-94.05 0-130.05l-125.1-125.1c-18.45-18-41.85-27-65.7-27zM370.7 623.6c17.1 0 31.5 13.95 31.5 31.5v177.3c0 17.1-13.95 31.5-31.5 31.5H193.4c-17.1 0-31.5-13.95-31.5-31.5V655.1c0-17.1 13.95-31.5 31.5-31.5h177.3m0-60.75H193.4c-50.85 0-92.25 41.4-92.25 92.25v177.3c0 50.85 41.4 92.25 92.25 92.25h177.3c50.85 0 92.25-41.4 92.25-92.25V655.1c-0.45-51.3-41.4-92.25-92.25-92.25z m400.5 60.75c17.1 0 31.5 13.95 31.5 31.5v177.3c0 17.1-13.95 31.5-31.5 31.5H593.9c-17.1 0-31.5-13.95-31.5-31.5V655.1c0-17.1 13.95-31.5 31.5-31.5h177.3m0-60.75H593.9c-50.85 0-92.25 41.4-92.25 92.25v177.3c0 50.85 41.4 92.25 92.25 92.25h177.3c50.85 0 92.25-41.4 92.25-92.25V655.1c-0.45-51.3-41.4-92.25-92.25-92.25z" p-id="66943"></path></svg>