<?xml version="1.0" standalone="no"?><!DOCTYPE svg PUBLIC "-//W3C//DTD SVG 1.1//EN"
        "http://www.w3.org/Graphics/SVG/1.1/DTD/svg11.dtd">
<svg t="1714281738048" class="icon" viewBox="0 0 1024 1024" version="1.1" xmlns="http://www.w3.org/2000/svg" p-id="1502"
     width="800" height="800">
    <path d="M156.298 92.596c66.42-11.711 128.338 42.393 141.54 117.267l79.818 455.017a32.23 32.23 0 0 1 0.483 5.14c65.474-3.234 124.656 42.698 136.335 108.937 0.323 1.828 0.606 3.654 0.85 5.476l414.342-68.27c17.438-2.873 33.903 8.934 36.778 26.372 2.871 17.438-8.936 33.904-26.374 36.777l-432.908 71.33c-16.374 41.08-53.01 72.987-99.76 81.23-71.795 12.66-140.258-35.278-152.917-107.072-9.938-56.36 17.467-110.665 64.441-137.535a31.904 31.904 0 0 1-4.308-11.327l-79.812-454.99c-7.525-42.672-39.148-70.305-67.395-65.324l-72.849 12.845c-17.405 3.07-34.002-8.552-37.07-25.957-3.07-17.404 8.552-34.002 25.957-37.07l72.849-12.846z m216.374 642.315c-36.985 6.522-61.68 41.79-55.16 78.775 6.522 36.985 41.79 61.68 78.776 55.16 36.985-6.522 61.68-41.791 55.159-78.776-6.522-36.985-41.79-61.68-78.775-55.159z m409.187-569.193c59.176-10.434 115.606 29.079 126.04 88.254l47.302 268.262c10.434 59.176-29.079 115.606-88.254 126.04l-268.262 47.302c-59.176 10.434-115.606-29.079-126.04-88.254L425.343 339.06c-10.434-59.176 29.079-115.606 88.254-126.04l268.262-47.302z m-3.955 65.684l14.507 82.273c3.069 17.405-8.552 34.002-25.957 37.07l-176.28 31.084c-17.405 3.069-34.002-8.553-37.071-25.957l-14.507-82.274-13.885 2.45c-24.366 4.296-40.636 27.532-36.34 51.898l47.302 268.262c4.296 24.367 27.532 40.637 51.899 36.34l268.261-47.302c24.367-4.296 40.637-27.532 36.34-51.899l-47.302-268.261c-4.296-24.367-27.532-40.637-51.898-36.34l-15.07 2.656zM714.97 243.05l-113.253 19.97 8.856 50.224 113.253-19.97-8.856-50.224z"
          fill="#515151" p-id="1503"></path>
</svg>