<?xml version="1.0" standalone="no"?><!DOCTYPE svg PUBLIC "-//W3C//DTD SVG 1.1//EN" "http://www.w3.org/Graphics/SVG/1.1/DTD/svg11.dtd"><svg t="1713862073239" class="icon" viewBox="0 0 1024 1024" version="1.1" xmlns="http://www.w3.org/2000/svg" p-id="113025" xmlns:xlink="http://www.w3.org/1999/xlink" width="800" height="800"><path d="M645.632 260.608c22.528-28.672 35.328-65.024 33.792-104.448C675.84 76.8 612.352 11.264 532.992 5.632 440.32-1.024 363.008 72.192 363.008 163.328c0 36.864 12.8 70.656 33.792 97.28H42.496v757.248h952.32V260.608h-349.184zM511.488 66.56c61.44-6.144 112.64 45.568 106.496 106.496-4.608 45.568-41.472 82.432-86.528 86.528-61.44 6.144-112.64-45.568-106.496-106.496 4.096-45.056 40.96-81.92 86.528-86.528z m422.4 890.368H103.424V321.536h830.976v635.392z" p-id="113026"></path><path d="M353.28 711.168l82.944 116.224 73.216-2.048L369.664 629.76l135.68-168.96H431.616L353.28 555.52V460.288H292.352v364.544H353.28v-113.664z m383.488-85.504h-95.232v60.928h34.304V768h-85.504v-250.368H675.84v46.592h60.928v-107.52h-206.848v372.224h206.848v-203.264z" p-id="113027"></path></svg>