<?xml version="1.0" standalone="no"?><!DOCTYPE svg PUBLIC "-//W3C//DTD SVG 1.1//EN" "http://www.w3.org/Graphics/SVG/1.1/DTD/svg11.dtd"><svg t="1715161003433" class="icon" viewBox="0 0 1025 1024" version="1.1" xmlns="http://www.w3.org/2000/svg" p-id="15975" xmlns:xlink="http://www.w3.org/1999/xlink" width="800.78125" height="800"><path d="M167.094 682.113h100.463v47.705H167.094v-47.705z" p-id="15976"></path><path d="M894.878 214.317H259.526c-47.771 0-86.635 36.932-86.635 82.305v54.818h-28.88c-47.777 0-86.64 36.932-86.64 82.304V817.71c0 45.342 38.863 82.273 86.64 82.273h606.471c47.772 0 86.64-36.931 86.64-82.273h57.76c47.772 0 86.636-36.947 86.636-82.305V296.622c0-45.373-38.864-82.305-86.64-82.305zM779.358 817.71c0 15.093-12.983 27.393-28.88 27.393H144.01c-15.94 0-28.88-12.295-28.88-27.393V570.872h664.231V817.71z m0-301.706H115.125v-82.259c0-15.16 12.94-27.409 28.88-27.409h606.471c15.898 0 28.88 12.254 28.88 27.41v82.258z m144.4 219.406c0 15.15-12.982 27.41-28.88 27.41h-57.76V433.743c0-45.372-38.87-82.304-86.64-82.304H230.645v-54.818c0-15.155 12.94-27.456 28.88-27.456h635.357c15.898 0 28.88 12.3 28.88 27.456v438.787h-0.005z m0 0" p-id="15977"></path></svg>