<?xml version="1.0" standalone="no"?><!DOCTYPE svg PUBLIC "-//W3C//DTD SVG 1.1//EN" "http://www.w3.org/Graphics/SVG/1.1/DTD/svg11.dtd"><svg t="1715161306877" class="icon" viewBox="0 0 1024 1024" version="1.1" xmlns="http://www.w3.org/2000/svg" p-id="16982" xmlns:xlink="http://www.w3.org/1999/xlink" width="800" height="800"><path d="M660.48 639.5392a35.4304 35.4304 0 1 0 0-70.9632H495.104V485.2736h165.376a35.4304 35.4304 0 1 0 0-70.9632h-147.6608L666.624 269.824a35.584 35.584 0 0 0-48.64-51.8656L459.6224 366.6432 301.3632 217.9584a35.584 35.584 0 0 0-48.64 51.8656l153.7536 144.384H258.816a35.4304 35.4304 0 1 0 0 70.9632h165.376v83.456h-165.376a35.4304 35.4304 0 1 0 0 70.912h165.376v84.5312a35.4304 35.4304 0 1 0 70.9632 0v-84.48h165.376z m-12.1856 160.9728c-11.5712 11.6224-21.1968 21.248-28.8768 29.184-7.68 7.936-12.544 12.9024-14.7456 15.0016-4.9152 4.864-8.704 9.3696-11.3664 13.4144-2.56 3.9936-4.9664 8.4992-7.0656 13.4144a122.6752 122.6752 0 0 0-6.8096 17.3056 1292.032 1292.032 0 0 0-17.1008 56.4736c-2.6624 9.216-4.2496 16.3328-4.9664 21.1968-1.3824 9.1648-0.512 15.616 2.6624 19.4048 3.1744 3.8912 9.3696 5.2224 18.944 4.096 4.4544-0.6656 11.4176-2.2528 20.6848-4.7104 9.2672-2.4576 19.0464-5.376 29.3888-8.704 10.3936-3.2256 20.224-6.656 29.6448-10.24 9.3696-3.4816 16.5888-6.4 21.5552-8.8576 4.9152-2.048 9.6768-4.864 14.1824-8.3968a238.592 238.592 0 0 0 25.2416-22.5792l27.8016-28.0576c11.264-11.3152 23.7568-23.9104 37.7856-37.5808l42.0864-42.496 112.9472-112.9472-98.2016-98.816-193.792 193.8944z m369.0496-201.216a48.384 48.384 0 0 0-3.4304-10.9568 118.528 118.528 0 0 0-20.736-30.208 97.8944 97.8944 0 0 0-24.3712-20.2752 87.552 87.552 0 0 0-12.288-4.7616 54.272 54.272 0 0 0-30.2592-0.256 45.4144 45.4144 0 0 0-15.2576 8.192c-3.8912 3.1744-8.704 7.424-14.3872 12.9024-5.7344 5.376-10.752 10.1376-15.0016 13.9264l98.1504 98.1504c2.4576-2.048 5.12-4.5056 7.936-7.3216l8.704-8.3968 11.264-10.9568a38.8608 38.8608 0 0 0 11.008-26.8288c0-4.5568-0.512-8.9088-1.3312-13.2096z" fill="#4C4C4C" p-id="16983"></path><path d="M361.472 996.864H137.216C61.5424 996.864 0 938.8544 0 867.328V135.8336C0 64.3584 61.5424 6.2464 137.216 6.2464h626.0736c75.6736 0 137.216 58.112 137.216 129.536v268.6464a41.7792 41.7792 0 0 1-83.456 0V135.7824c0-25.344-24.064-45.9264-53.76-45.9264H137.216c-29.6448 0-53.76 20.5824-53.76 45.9264v731.4432c0 25.344 24.1152 45.9776 53.76 45.9776h224.256a41.8816 41.8816 0 0 1 0 83.712" fill="#4C4C4C" p-id="16984"></path></svg>