<?xml version="1.0" standalone="no"?><!DOCTYPE svg PUBLIC "-//W3C//DTD SVG 1.1//EN" "http://www.w3.org/Graphics/SVG/1.1/DTD/svg11.dtd"><svg t="1715162363307" class="icon" viewBox="0 0 1024 1024" version="1.1" xmlns="http://www.w3.org/2000/svg" p-id="18169" xmlns:xlink="http://www.w3.org/1999/xlink" width="800" height="800"><path d="M271.058824 391.529412h481.882352v-60.235294h-481.882352zM271.058824 572.235294h481.882352v-60.235294h-481.882352zM271.058824 752.941176h481.882352v-60.235294h-481.882352z" fill="#222222" p-id="18170"></path><path d="M271.058824 90.352941h-60.235295c-66.258824 0-120.470588 54.211765-120.470588 120.470588v662.588236c0 66.258824 54.211765 120.470588 120.470588 120.470588h602.352942c66.258824 0 120.470588-54.211765 120.470588-120.470588v-662.588236c0-66.258824-54.211765-120.470588-120.470588-120.470588h-54.211765v60.235294h54.211765c36.141176 0 60.235294 24.094118 60.235294 60.235294v662.588236c0 30.117647-24.094118 60.235294-60.235294 60.235294h-602.352942c-36.141176 0-60.235294-24.094118-60.235294-60.235294v-662.588236c0-30.117647 24.094118-60.235294 60.235294-60.235294h60.235295v-60.235294z" fill="#222222" p-id="18171"></path><path d="M391.529412 150.588235h240.941176v-60.235294h-240.941176v60.235294z m-60.235294-60.235294c0-36.141176 30.117647-60.235294 60.235294-60.235294h240.941176c30.117647 0 60.235294 24.094118 60.235294 60.235294v60.235294c0 36.141176-30.117647 60.235294-60.235294 60.235294h-240.941176c-30.117647 0-60.235294-24.094118-60.235294-60.235294v-60.235294z" fill="#222222" p-id="18172"></path></svg>