<?xml version="1.0" standalone="no"?><!DOCTYPE svg PUBLIC "-//W3C//DTD SVG 1.1//EN" "http://www.w3.org/Graphics/SVG/1.1/DTD/svg11.dtd"><svg t="1714984467207" class="icon" viewBox="0 0 1024 1024" version="1.1" xmlns="http://www.w3.org/2000/svg" p-id="9416" xmlns:xlink="http://www.w3.org/1999/xlink" width="800" height="800"><path d="M554.666667 640h85.333333v42.666667h-85.333333v42.666666h-42.666667v-42.666666h-85.333333v-42.666667h85.333333v-42.666667h-85.333333v-42.666666h89.6l-98.133334-98.133334 29.866667-29.866666 85.333333 85.333333 85.333334-85.333333 29.866666 29.866666-98.133333 98.133334H640v42.666666h-85.333333v42.666667z m-8.533334-85.333333zM640 256v42.666667h-213.333333V234.666667c0-8.533333 0-12.8 4.266666-21.333334H298.666667v640h469.333333V213.333333h-132.266667c4.266667 8.533333 4.266667 12.8 4.266667 21.333334V256z m-42.666667 0v-21.333333c0-34.133333-29.866667-64-64-64S469.333333 200.533333 469.333333 234.666667V256h128z m-149.333333-85.333333c21.333333-25.6 51.2-42.666667 85.333333-42.666667s64 17.066667 85.333334 42.666667H810.666667v725.333333H256V170.666667h192z" fill="#444444" p-id="9417"></path></svg>