<?xml version="1.0" standalone="no"?><!DOCTYPE svg PUBLIC "-//W3C//DTD SVG 1.1//EN" "http://www.w3.org/Graphics/SVG/1.1/DTD/svg11.dtd"><svg t="1713839621222" class="icon" viewBox="0 0 1024 1024" version="1.1" xmlns="http://www.w3.org/2000/svg" p-id="29127" xmlns:xlink="http://www.w3.org/1999/xlink" width="800" height="800"><path d="M958.5 444.1c0-20-7.8-38.8-21.9-52.9l-239-239c-14.1-14.1-32.9-21.9-53-21.9h-0.1c-20 0-38.8 7.8-52.9 21.9L510.9 233l-80.7-80.7c-14.1-14.2-32.9-21.9-52.9-21.9h-0.1c-20 0-38.8 7.8-53 21.9L85.4 391.1c-14.1 14.1-21.9 32.9-21.9 53 0 20 7.8 38.8 21.9 53l124.1 124.1c1.1 4.5 3 8.9 6.5 12.5l239 239c14.1 14.1 32.9 21.9 53 21.9h0.1c1 0 1.9-0.6 2.9-0.6s1.9 0.6 2.9 0.6h0.1c20 0 38.8-7.8 53-21.9l238.9-238.9c5.3-5.3 8.8-11.8 12.2-18.3L936.7 497c14-14.1 21.8-32.9 21.8-52.9z m-842.3 0c0-5.9 2.4-11.5 6.5-15.7l238.9-238.9c4.2-4.2 9.8-6.5 15.7-6.5s11.5 2.3 15.7 6.5l80.8 80.8L362.2 382l25.6 25.7c22 22 51.2 34.1 82.3 34.1 31.2 0 60.3-12 82.3-34.1l29.5-29.5 186.9 186.9c4.2 4.2 6.5 9.8 6.5 15.7 0 1.4-0.6 2.6-0.8 4l-38.6 38.6-52.9-53c-10.3-10.3-26.9-10.3-37.3 0-10.3 10.3-10.3 26.9 0 37.3l52.9 53-33.2 33.2-52.9-53c-10.3-10.3-26.9-10.3-37.3 0-10.3 10.3-10.3 26.9 0 37.3l52.9 53-34.4 34.4-52.9-53c-10.3-10.3-26.9-10.3-37.3 0-10.3 10.3-10.3 26.9 0 37.3l52.9 53-32.8 32.8c-3.4 3.5-7.9 5.3-12.6 5.9-4.7-0.7-9.2-2.4-12.7-5.9L122.7 459.8c-4.2-4.2-6.5-9.8-6.5-15.7z m783.1 15.7L816 543.1c-3.1-5.3-5.7-10.8-10.2-15.2L617.5 339.5c4-9.5 2.1-20.9-5.7-28.6-10.3-10.3-26.9-10.3-37.3 0L515 370.5c-20 20-52.9 24.1-77 10.1L595.5 223c0.1-0.1 0.2-0.3 0.3-0.5l33-33c4.1-4.2 9.7-6.5 15.6-6.5s11.5 2.4 15.7 6.5L899 428.4c4.2 4.2 6.5 9.8 6.5 15.7 0.4 5.9-2 11.5-6.2 15.7z" p-id="29128"></path></svg>