<?xml version="1.0" standalone="no"?><!DOCTYPE svg PUBLIC "-//W3C//DTD SVG 1.1//EN" "http://www.w3.org/Graphics/SVG/1.1/DTD/svg11.dtd"><svg t="1713839510064" class="icon" viewBox="0 0 1024 1024" version="1.1" xmlns="http://www.w3.org/2000/svg" p-id="21219" xmlns:xlink="http://www.w3.org/1999/xlink" width="800" height="800"><path d="M586.24 967.68H155.648c-72.704 0-132.096-109.056-132.096-185.856v-52.736c0-65.536 24.064-127.488 67.072-174.08 44.032-47.616 102.4-73.728 164.864-73.728h65.536c11.776 0 23.04 5.12 30.72 13.312L425.472 573.44l73.728-79.36c7.68-8.704 19.456-13.312 30.72-13.312h45.056c6.656 0 12.8 0.512 19.456 1.024 5.632 0.512 11.264 1.024 16.896 2.048 9.216 1.536 17.92 3.584 26.624 6.144 10.752 3.072 20.992 7.168 30.72 11.776 1.024 0.512 2.048 1.024 3.584 1.536 15.872 7.68 22.528 27.136 14.336 43.008-7.68 15.872-27.136 22.528-43.008 14.336-1.024-0.512-1.536-1.024-2.56-1.024-7.168-3.584-14.336-6.144-22.016-8.704-6.144-2.048-12.288-3.072-18.944-4.608-4.096-0.512-7.68-1.024-11.776-1.536-4.608-0.512-9.216-0.512-13.824-0.512h-35.328L455.68 633.856c-7.68 8.704-19.456 13.312-30.72 13.312-11.776 0-23.04-5.12-30.72-13.312l-82.944-89.6h-56.32c-92.672 0-167.936 82.432-167.936 183.808v52.736c0 41.984 30.72 121.856 68.096 121.856h430.592c17.92 0 32.256 14.336 32.256 32.256 0.512 18.432-13.824 32.768-31.744 32.768zM427.008 118.272c36.352 0 70.144 13.824 95.744 39.424s39.424 59.392 39.424 95.744-13.824 70.144-39.424 95.744-59.392 39.424-95.744 39.424-70.144-13.824-95.744-39.424S291.84 289.792 291.84 253.44s13.824-70.144 39.424-95.744c26.112-25.088 59.904-39.424 95.744-39.424m0-64C317.44 54.272 228.352 143.36 228.352 253.44S317.44 452.608 427.008 452.608s199.168-89.088 199.168-199.168-89.088-199.168-199.168-199.168z" p-id="21220"></path><path d="M787.456 585.728c46.592 0 90.112 17.92 122.88 51.2 32.768 32.768 51.2 76.8 51.2 122.88s-17.92 90.112-51.2 122.88c-32.768 32.768-76.8 51.2-122.88 51.2s-90.112-17.92-122.88-51.2c-32.768-32.768-51.2-76.8-51.2-122.88s17.92-90.112 51.2-122.88c32.768-32.768 76.288-51.2 122.88-51.2m0-49.664c-123.904 0-224.256 100.352-224.256 224.256s100.352 224.256 224.256 224.256 224.256-100.352 224.256-224.256-100.352-224.256-224.256-224.256z" p-id="21221"></path><path d="M754.688 651.264c-6.656 17.408-14.848 35.328-24.064 52.736v182.272h-37.376v-125.44c-3.584 4.608-7.68 9.216-11.264 12.8-3.584-9.216-13.312-30.208-19.968-39.936 22.528-22.528 44.032-58.368 56.32-94.208l36.352 11.776z m63.488 174.08c-13.312 23.04-34.816 46.08-53.76 60.416-6.656-6.656-20.992-18.432-29.184-23.552 18.944-11.264 37.376-29.696 47.616-47.616l35.328 10.752z m94.208-56.32v36.864H742.4v-36.864h32.256v-45.056h-26.112v-36.352h26.112v-46.592h36.864v46.592h30.208v-47.104h36.864v47.104h31.744v36.352h-31.744v45.056h33.792z m-100.352 0h30.208v-45.056h-30.208v45.056z m56.832 44.544c16.384 15.872 33.792 37.888 43.008 52.736l-31.744 19.968c-7.68-15.36-25.6-38.912-41.472-55.808l30.208-16.896z" p-id="21222"></path></svg>