<?xml version="1.0" standalone="no"?><!DOCTYPE svg PUBLIC "-//W3C//DTD SVG 1.1//EN"
        "http://www.w3.org/Graphics/SVG/1.1/DTD/svg11.dtd">
<svg t="1734927888826" class="icon" viewBox="0 0 1024 1024" version="1.1" xmlns="http://www.w3.org/2000/svg"
     p-id="10303" width="200" height="200">
    <path d="M682.666667 970.666667H341.333333c-155.733333 0-245.333333-89.6-245.333333-245.333334V298.666667c0-155.733333 89.6-245.333333 245.333333-245.333334h341.333334c155.733333 0 245.333333 89.6 245.333333 245.333334v426.666666c0 155.733333-89.6 245.333333-245.333333 245.333334z m-341.333334-853.333334C219.306667 117.333333 160 176.64 160 298.666667v426.666666c0 122.026667 59.306667 181.333333 181.333333 181.333334h341.333334c122.026667 0 181.333333-59.306667 181.333333-181.333334V298.666667c0-122.026667-59.306667-181.333333-181.333333-181.333334H341.333333z"
          p-id="10304" fill="#2c2c2c"></path>
    <path d="M789.333333 394.666667h-85.333333c-64.853333 0-117.333333-52.48-117.333333-117.333334v-85.333333c0-17.493333 14.506667-32 32-32s32 14.506667 32 32v85.333333c0 29.44 23.893333 53.333333 53.333333 53.333334h85.333333c17.493333 0 32 14.506667 32 32s-14.506667 32-32 32zM512 586.666667H341.333333c-17.493333 0-32-14.506667-32-32s14.506667-32 32-32h170.666667c17.493333 0 32 14.506667 32 32s-14.506667 32-32 32zM682.666667 757.333333H341.333333c-17.493333 0-32-14.506667-32-32s14.506667-32 32-32h341.333334c17.493333 0 32 14.506667 32 32s-14.506667 32-32 32z"
          p-id="10305" fill="#2c2c2c"></path>
</svg>